<svg width="104" height="104" viewBox="0 0 104 104" fill="none" xmlns="http://www.w3.org/2000/svg">
<g filter="url(#filter0_d_1255_13000)">
<rect x="4" width="96" height="96" fill="white"/>
<path d="M11.3407 13.6506V48.9458C11.3407 51.5242 13.4309 53.6145 16.0094 53.6145V53.6145C18.5878 53.6145 20.678 51.5242 20.678 48.9458V30.6446C20.678 27.2411 23.4372 24.482 26.8407 24.482V24.482C30.2442 24.482 33.0033 27.2411 33.0033 30.6446V82L47.9431 80.1325L61.3889 82L76.7021 80.1325L91.6419 82H94.2026" stroke="#77C5D5" stroke-width="4.68146"/>
<path d="M70.3527 24.482V13.6506H9M92.0154 82V31.9518C92.0154 27.8263 88.671 24.482 84.5455 24.482H26.654" stroke="#77C5D5" stroke-width="4.68146"/>
<path d="M15.4491 53.6143H32.6298" stroke="#77C5D5" stroke-width="4.68146"/>
<path d="M41.2202 37.5542H58.4009" stroke="#77C5D5" stroke-width="4.68146"/>
<path d="M41.2202 46.5181H73.3407" stroke="#77C5D5" stroke-width="4.68146"/>
<path d="M42.3408 63.699H58.7745" stroke="#77C5D5" stroke-width="4.68146"/>
<path d="M50.5577 55.4822L50.5577 71.9159" stroke="#77C5D5" stroke-width="4.68146"/>
<path d="M75.9323 69.4177H71.9349V72.6626H69.6557V69.4177H67.1857V67.5533H69.6557V65.9367H67.1857V64.0841H69.6557V55.4819H76.0636C77.9251 55.4819 79.4008 55.95 80.4906 56.8861C81.5805 57.8223 82.1254 59.0888 82.1254 60.6857C82.1254 62.3613 81.6004 63.6554 80.5503 64.5679C79.5082 65.4726 78.0245 65.9288 76.0994 65.9367H71.9349V67.5533H75.9323V69.4177ZM71.9349 64.0841H76.0636C77.2967 64.0841 78.2354 63.797 78.8797 63.2227C79.5241 62.6484 79.8463 61.8106 79.8463 60.7093C79.8463 59.7102 79.5122 58.9039 78.8439 58.2903C78.1757 57.6689 77.2728 57.3542 76.1352 57.3463H71.9349V64.0841Z" fill="#77C5D5" stroke="#77C5D5" stroke-width="0.936293"/>
</g>
<defs>
<filter id="filter0_d_1255_13000" x="0" y="0" width="104" height="104" filterUnits="userSpaceOnUse" color-interpolation-filters="sRGB">
<feFlood flood-opacity="0" result="BackgroundImageFix"/>
<feColorMatrix in="SourceAlpha" type="matrix" values="0 0 0 0 0 0 0 0 0 0 0 0 0 0 0 0 0 0 127 0" result="hardAlpha"/>
<feOffset dy="4"/>
<feGaussianBlur stdDeviation="2"/>
<feComposite in2="hardAlpha" operator="out"/>
<feColorMatrix type="matrix" values="0 0 0 0 0 0 0 0 0 0 0 0 0 0 0 0 0 0 0.25 0"/>
<feBlend mode="normal" in2="BackgroundImageFix" result="effect1_dropShadow_1255_13000"/>
<feBlend mode="normal" in="SourceGraphic" in2="effect1_dropShadow_1255_13000" result="shape"/>
</filter>
</defs>
</svg>
