<svg width="96" height="96" viewBox="0 0 96 96" fill="none" xmlns="http://www.w3.org/2000/svg">
<rect width="96" height="96" fill="white"/>
<path fill-rule="evenodd" clip-rule="evenodd" d="M43.563 7.16468C34.1192 8.47846 26.4222 14.0136 22.3132 22.447C18.3025 30.6785 18.685 39.75 23.4485 49.3685C26.9 56.3377 32.2832 62.6985 38.0451 66.6158C38.9754 67.2484 41.73 68.7538 42.332 68.959C42.5622 69.0374 42.3962 69.3259 41.6735 70.1031C40.5259 71.3371 40.3481 71.8882 40.7707 72.8999C41.1831 73.8871 42.0675 74.2554 44.0255 74.2554H45.527C47 75.5 48.9744 79.2389 49.5 83C50.1289 87.5 48.9901 92.8893 50.1289 93C51.7982 93.1623 52.0385 91.5771 52.0184 83C52.008 78.4699 51 76.5 50.1289 74.3602C50.1289 74.3025 50.3626 74.2554 50.6484 74.2554C51.6529 74.2554 52.5877 73.6979 52.9212 72.8999C53.3438 71.8882 53.166 71.3371 52.0184 70.1031C51.2957 69.3259 51.1297 69.0374 51.3599 68.959C51.9619 68.7538 54.7165 67.2484 55.6468 66.6158C64.9783 60.2716 72.5451 48.3136 73.9119 37.7517C75.5348 25.2088 68.09 13.0136 56.1226 8.61182C52.583 7.30995 47.0786 6.67573 43.563 7.16468ZM50.3498 11.4772C54.4508 12.056 58.7198 14.0307 61.9485 16.8421C65.1976 19.6713 67.5736 23.3004 68.8736 27.419C70.7057 33.2225 70.0261 40.0333 66.9507 46.6902C62.428 56.4792 52.685 65.6841 46.8459 65.6841C41.0069 65.6841 31.2638 56.4792 26.7412 46.6902C24.8248 42.5421 23.8389 38.3909 23.8348 34.4516C23.8316 31.4918 24.0696 29.7907 24.8183 27.419C28.2719 16.4781 38.8748 9.85769 50.3498 11.4772ZM43.1332 15.7692C35.4842 17.3829 29.8902 23.0492 28.2949 30.7995C27.9145 32.6468 27.8734 34.4949 28.1984 35.1305C28.8505 36.4057 30.4667 36.7034 31.4419 35.7282C31.9225 35.2477 32.0333 34.9216 32.1568 33.6251C32.6041 28.9349 34.4097 25.4449 37.7765 22.7638C40.1593 20.8665 42.7226 19.9251 46.5218 19.5527C48.5024 19.3586 49.3828 18.0937 48.6526 16.491C48.117 15.3157 46.3675 15.0867 43.1332 15.7692Z" fill="#77C5D5"/>
</svg>
