<svg width="96" height="96" viewBox="0 0 96 96" fill="none" xmlns="http://www.w3.org/2000/svg">
<rect width="96" height="96" fill="white"/>
<path d="M45.7706 65.1679L40.2525 56.1568C39.9947 55.7358 39.9235 55.2528 40.0033 54.7836L40.0064 54.7655L40.0104 54.7476C40.1205 54.2545 40.4342 53.8352 40.8318 53.5772L52.3373 46.112C52.9486 45.7153 53.7373 45.7423 54.315 46.1203L54.3212 46.1243L54.3272 46.1285C54.939 46.5482 55.223 47.3038 55.0904 48.0172L55.0903 48.0179C54.8645 49.2277 55.0794 50.4417 55.7174 51.4835C57.0913 53.7271 59.979 54.387 62.1626 52.9702C64.3461 51.5534 65.0132 48.587 63.6393 46.3434C63.0129 45.3205 62.0285 44.578 60.8722 44.2663L60.8716 44.2661C60.1891 44.0815 59.6493 43.492 59.5453 42.7428C59.4425 42.0022 59.7669 41.2913 60.3891 40.8876L71.9734 33.3711C72.3883 33.1019 72.8616 33.0265 73.3185 33.1059C73.8716 33.2021 74.2559 33.5728 74.4843 33.9457L93.9722 65.7695C94.5026 66.6357 94.2485 67.794 93.3929 68.3491L62.2315 88.5681C61.8167 88.8372 61.3433 88.9127 60.8865 88.8332L60.8688 88.8301L60.8514 88.8261C60.3721 88.7158 59.9678 88.397 59.7207 87.9935L54.1161 78.8411C53.567 79.516 52.9149 80.1101 52.1656 80.5963C50.2952 81.8099 48.051 82.2199 45.8837 81.7211C43.7177 81.2226 41.8815 79.8919 40.6988 77.9605L40.6968 77.9572C38.3205 74.0277 39.499 68.7476 43.391 66.2223C44.1403 65.736 44.9423 65.3867 45.7706 65.1679ZM55.5524 74.1353L61.8451 84.4113L89.9163 66.1974L72.3475 37.5076L64.9569 42.303C65.6363 42.8759 66.2242 43.5583 66.6974 44.331C69.1335 48.3092 67.9421 53.5712 64.0496 56.0968C60.1525 58.6254 55.0358 57.4217 52.6025 53.4482C52.1244 52.6673 51.7778 51.8282 51.5717 50.9597L44.264 55.7013L50.4578 65.8158C50.8275 66.4196 50.8422 67.2213 50.4284 67.8542C50.0066 68.4994 49.2851 68.7632 48.5978 68.6573L48.5863 68.6555L48.5748 68.6533C47.4383 68.4368 46.2683 68.6781 45.2657 69.3287C43.0821 70.7455 42.415 73.7119 43.7889 75.9554C44.4473 77.0306 45.4868 77.787 46.7087 78.0846C47.91 78.3601 49.1643 78.1362 50.234 77.4421C51.2135 76.8066 51.9335 75.8247 52.2544 74.6557C52.4468 73.9277 53.0525 73.424 53.7211 73.2891L53.737 73.2859L53.7531 73.2834C54.4787 73.1733 55.1661 73.5044 55.5524 74.1353Z" fill="#77C5D5" stroke="#77C5D5" stroke-width="1.37817"/>
<path d="M40.7012 40.1235L37.2612 49.6594C37.0982 50.1112 36.7789 50.4524 36.3801 50.6658L36.3643 50.6743L36.348 50.6819C35.9115 50.8862 35.4089 50.8848 34.9775 50.7199L22.7566 46.0487C22.0917 45.7946 21.6466 45.1479 21.5891 44.4671L21.5885 44.4597L21.5881 44.4523C21.5418 43.7206 21.9391 43.0505 22.5528 42.7344L22.5534 42.7341C23.5738 42.2098 24.3433 41.339 24.741 40.2366C25.598 37.8609 24.4062 35.2329 22.1091 34.3549C19.812 33.4768 17.2428 34.6673 16.3857 37.043C15.9953 38.1254 16.0195 39.3236 16.4596 40.4049L16.4598 40.4055C16.7244 41.0573 16.6005 41.8319 16.1015 42.3552C15.6077 42.8732 14.8801 43.0381 14.204 42.7797L1.89927 38.0764C1.44861 37.9042 1.11103 37.5701 0.900822 37.1599C0.64538 36.6614 0.69758 36.1374 0.841421 35.7386L13.0355 1.93582C13.37 1.00849 14.3882 0.519387 15.3193 0.875276L48.4184 13.5267C48.8691 13.699 49.2067 14.0331 49.4169 14.4433L49.4252 14.4596L49.4327 14.4763C49.6334 14.9234 49.6323 15.432 49.4763 15.8645L45.9821 25.5505C46.7896 25.592 47.5971 25.7575 48.3823 26.0576C50.3788 26.8207 51.9955 28.3481 52.8917 30.3444C53.7871 32.3391 53.8715 34.559 53.1299 36.615L53.1285 36.6185C51.6026 40.7763 46.9973 42.9404 42.8412 41.3518C42.056 41.0517 41.3393 40.6346 40.7012 40.1235ZM41.5928 27.1775L45.5217 16.2865L15.7641 4.91225L4.78826 35.3382L12.5706 38.3128C12.6018 37.4559 12.7644 36.6073 13.0573 35.7952C14.5844 31.5622 19.1838 29.4186 23.3405 31.0074C27.5023 32.5982 29.5922 37.329 28.0671 41.5568C27.7711 42.3772 27.3582 43.1302 26.8439 43.7929L34.5381 46.7338L38.405 36.0143C38.6384 35.3674 39.2295 34.8806 39.953 34.8355C40.6923 34.7895 41.3201 35.2115 41.647 35.8213L41.6526 35.8319L41.6579 35.8426C42.156 36.8523 43.009 37.6222 44.0648 38.0258C46.3619 38.9039 48.9312 37.7134 49.7882 35.3377C50.1986 34.2001 50.1527 32.9509 49.6642 31.8265C49.1718 30.7319 48.2827 29.8864 47.1564 29.4559C46.1253 29.0618 44.989 29.0686 43.9443 29.4948C43.2814 29.773 42.5411 29.588 42.0422 29.1335L42.0299 29.1224L42.0182 29.1106C41.5042 28.596 41.349 27.8534 41.5928 27.1775Z" fill="#77C5D5" stroke="#77C5D5" stroke-width="1.37817"/>
</svg>
