<svg width="34" height="35" viewBox="0 0 34 35" fill="none" xmlns="http://www.w3.org/2000/svg">
<mask id="mask0_3292_190" style="mask-type:alpha" maskUnits="userSpaceOnUse" x="0" y="0" width="34" height="35">
<path fill-rule="evenodd" clip-rule="evenodd" d="M34 17.375L34 0.375H0V34.375H34L34 17.375ZM34 17.375L17 0.375003L2.41487e-06 17.375L17 34.375L34 17.375Z" fill="white"/>
</mask>
<g mask="url(#mask0_3292_190)">
<path d="M34 17.375C34 19.6075 33.5603 21.8181 32.7059 23.8806C31.8516 25.9431 30.5994 27.8172 29.0208 29.3958C27.4422 30.9744 25.5681 32.2266 23.5056 33.0809C21.4431 33.9353 19.2325 34.375 17 34.375L17 17.375H34Z" fill="#DE5C6D"/>
<path d="M9.11558e-06 17.375C9.31075e-06 15.1425 0.439727 12.9319 1.29406 10.8694C2.14839 8.80685 3.4006 6.93279 4.97919 5.35419C6.55779 3.7756 8.43186 2.52339 10.4944 1.66906C12.5569 0.814727 14.7675 0.37501 17 0.37501L17 17.375L9.11558e-06 17.375Z" fill="#DE5C6D"/>
<path d="M17 34.375C14.7675 34.375 12.5569 33.9353 10.4944 33.0809C8.43185 32.2266 6.55779 30.9744 4.97919 29.3958C3.4006 27.8172 2.14839 25.9431 1.29406 23.8806C0.439728 21.8181 1.05058e-05 19.6075 1.0701e-05 17.375L17 17.375L17 34.375Z" fill="#F6D7C4"/>
<path d="M17 0.375006C19.2325 0.375006 21.4431 0.814725 23.5056 1.66905C25.5681 2.52338 27.4422 3.7756 29.0208 5.35419C30.5994 6.93279 31.8516 8.80685 32.7059 10.8694C33.5603 12.9319 34 15.1425 34 17.375L17 17.375L17 0.375006Z" fill="#F6D7C4"/>
<rect x="17.9443" y="0.375" width="34" height="1.88889" transform="rotate(90 17.9443 0.375)" fill="#DFA288"/>
<rect y="16.4307" width="34" height="1.88889" fill="#DFA288"/>
<path d="M11.1335 6.24165C10.8704 5.97855 10.558 5.76985 10.2143 5.62746C9.8705 5.48507 9.50206 5.41178 9.12998 5.41178C8.75791 5.41178 8.38947 5.48507 8.04571 5.62746C7.70196 5.76985 7.38961 5.97855 7.12651 6.24165C6.86342 6.50475 6.65471 6.81709 6.51233 7.16085C6.36994 7.5046 6.29665 7.87304 6.29665 8.24512C6.29665 8.6172 6.36994 8.98563 6.51233 9.32939C6.65471 9.67314 6.86342 9.98549 7.12652 10.2486L9.12998 8.24512L11.1335 6.24165Z" fill="black"/>
<path d="M11.1335 28.5084C10.8704 28.7715 10.558 28.9802 10.2143 29.1225C9.8705 29.2649 9.50206 29.3382 9.12998 29.3382C8.75791 29.3382 8.38947 29.2649 8.04571 29.1225C7.70196 28.9802 7.38961 28.7715 7.12651 28.5084C6.86342 28.2453 6.65471 27.9329 6.51233 27.5892C6.36994 27.2454 6.29665 26.877 6.29665 26.5049C6.29665 26.1328 6.36994 25.7644 6.51233 25.4206C6.65471 25.0769 6.86342 24.7645 7.12652 24.5014L9.12998 26.5049L11.1335 28.5084Z" fill="black"/>
<path d="M22.7816 6.24165C23.0447 5.97855 23.357 5.76985 23.7008 5.62746C24.0445 5.48507 24.413 5.41178 24.7851 5.41178C25.1571 5.41178 25.5256 5.48507 25.8693 5.62746C26.2131 5.76985 26.5254 5.97855 26.7885 6.24165C27.0516 6.50475 27.2603 6.81709 27.4027 7.16085C27.5451 7.5046 27.6184 7.87304 27.6184 8.24512C27.6184 8.6172 27.5451 8.98563 27.4027 9.32939C27.2603 9.67314 27.0516 9.98549 26.7885 10.2486L24.7851 8.24512L22.7816 6.24165Z" fill="black"/>
<path d="M22.8665 28.5084C23.1296 28.7715 23.442 28.9802 23.7857 29.1225C24.1295 29.2649 24.4979 29.3382 24.87 29.3382C25.2421 29.3382 25.6105 29.2649 25.9543 29.1225C26.298 28.9802 26.6104 28.7715 26.8735 28.5084C27.1366 28.2453 27.3453 27.9329 27.4877 27.5892C27.6301 27.2454 27.7033 26.877 27.7033 26.5049C27.7033 26.1328 27.6301 25.7644 27.4877 25.4206C27.3453 25.0769 27.1366 24.7645 26.8735 24.5014L24.87 26.5049L22.8665 28.5084Z" fill="black"/>
</g>
<path d="M7.12631 10.2486C7.38941 10.5117 7.70176 10.7204 8.04551 10.8628C8.38927 11.0052 8.7577 11.0784 9.12978 11.0784C9.50186 11.0784 9.8703 11.0052 10.2141 10.8628C10.5578 10.7204 10.8702 10.5117 11.1333 10.2486C11.3963 9.98549 11.6051 9.67314 11.7474 9.32939C11.8898 8.98563 11.9631 8.6172 11.9631 8.24512C11.9631 7.87304 11.8898 7.5046 11.7474 7.16085C11.6051 6.81709 11.3963 6.50475 11.1333 6.24165L9.12978 8.24512L7.12631 10.2486Z" fill="#E8A092"/>
<path d="M7.12631 24.5014C7.38941 24.2383 7.70176 24.0296 8.04551 23.8872C8.38927 23.7448 8.7577 23.6716 9.12978 23.6716C9.50186 23.6716 9.8703 23.7448 10.2141 23.8872C10.5578 24.0296 10.8702 24.2383 11.1333 24.5014C11.3963 24.7645 11.6051 25.0769 11.7474 25.4206C11.8898 25.7644 11.9631 26.1328 11.9631 26.5049C11.9631 26.877 11.8898 27.2454 11.7474 27.5892C11.6051 27.9329 11.3963 28.2453 11.1333 28.5084L9.12978 26.5049L7.12631 24.5014Z" fill="#E8A092"/>
<path d="M26.8366 10.2193C26.5735 10.4824 26.2611 10.6911 25.9174 10.8335C25.5736 10.9759 25.2052 11.0492 24.8331 11.0492C24.461 11.0492 24.0926 10.9759 23.7488 10.8335C23.4051 10.6911 23.0927 10.4824 22.8296 10.2193C22.5665 9.95619 22.3578 9.64385 22.2155 9.30009C22.0731 8.95633 21.9998 8.5879 21.9998 8.21582C21.9998 7.84374 22.0731 7.47531 22.2155 7.13155C22.3578 6.78779 22.5665 6.47545 22.8296 6.21235L24.8331 8.21582L26.8366 10.2193Z" fill="#E8A092"/>
<path d="M26.8737 24.5014C26.6106 24.2383 26.2982 24.0296 25.9545 23.8872C25.6107 23.7448 25.2423 23.6716 24.8702 23.6716C24.4981 23.6716 24.1297 23.7448 23.7859 23.8872C23.4422 24.0296 23.1298 24.2383 22.8667 24.5014C22.6037 24.7645 22.3949 25.0769 22.2526 25.4206C22.1102 25.7644 22.0369 26.1328 22.0369 26.5049C22.0369 26.877 22.1102 27.2454 22.2526 27.5892C22.3949 27.9329 22.6037 28.2453 22.8667 28.5084L24.8702 26.5049L26.8737 24.5014Z" fill="#E8A092"/>
</svg>
