<svg width="160" height="160" viewBox="0 0 160 160" fill="none" xmlns="http://www.w3.org/2000/svg">
<path d="M72.5 125C101.495 125 125 101.495 125 72.5C125 43.5051 101.495 20 72.5 20C43.5051 20 20 43.5051 20 72.5C20 101.495 43.5051 125 72.5 125Z" stroke="#EEB250" stroke-width="8" stroke-linecap="round" stroke-linejoin="round"/>
<path d="M109.621 109.628L139.996 140.004" stroke="#EEB250" stroke-width="8" stroke-linecap="round" stroke-linejoin="round"/>
<path d="M76.5069 80.9806V80.0924C76.5069 73.2596 86.4144 70.5265 86.4144 61.1656C86.4144 54.0595 81.0165 48.6616 72.7489 48.6616C65.6428 48.6616 61.3381 52.693 59.4933 58.2958C59.3566 58.7741 59.5616 59.1158 60.0399 59.3207L65.8478 61.3706C66.3261 61.5756 66.736 61.3706 66.941 60.824C67.8976 57.8859 69.7424 56.5193 72.6122 56.5193C75.6869 56.5193 77.8051 58.5008 77.8051 61.5756C77.8051 67.1784 68.1026 70.7998 68.1026 79.5457V80.9806C68.1026 81.4589 68.4442 81.8006 68.9225 81.8006H75.6869C76.1652 81.8006 76.5069 81.4589 76.5069 80.9806ZM72.4755 98.7458C75.7553 98.7458 78.4201 96.081 78.4201 92.733C78.4201 89.4533 75.7553 86.7885 72.4755 86.7885C69.1275 86.7885 66.4627 89.4533 66.4627 92.733C66.4627 96.081 69.1275 98.7458 72.4755 98.7458Z" fill="#EEB250"/>
</svg>
